HIERARCHY
ROOT Hips
{
    OFFSET 0.0 0.0 0.0
    CHANNELS 6 Xposition Yposition Zposition Zrotation Xrotation Yrotation
    JOINT Spine
    {
        OFFSET 0.0 5.0 0.0
        CHANNELS 3 Zrotation Xrotation Yrotation
        JOINT Chest
        {
            OFFSET 0.0 5.0 0.0
            CHANNELS 3 Zrotation Xrotation Yrotation
            JOINT Neck
            {
                OFFSET 0.0 8.0 0.0
                CHANNELS 3 Zrotation Xrotation Yrotation
                JOINT Head
                {
                    OFFSET 0.0 5.0 0.0
                    CHANNELS 3 Zrotation Xrotation Yrotation
                    End Site
                    {
                        OFFSET 0.0 3.0 0.0
                    }
                }
            }
            JOINT LeftShoulder
            {
                OFFSET -5.0 0.0 0.0
                CHANNELS 3 Zrotation Xrotation Yrotation
                JOINT LeftArm
                {
                    OFFSET 0.0 -10.0 0.0
                    CHANNELS 3 Zrotation Xrotation Yrotation
                    JOINT LeftForeArm
                    {
                        OFFSET 0.0 -10.0 0.0
                        CHANNELS 3 Zrotation Xrotation Yrotation
                        End Site
                        {
                            OFFSET 0.0 -3.0 0.0
                        }
                    }
                }
            }
        }
    }
}

MOTION
Frames: 22
Frame Time: 0.033333
960.000000 445.000000 106.297045 0.000000 0.000000 0.000000 0.000000 0.000000 0.000000 23.025492 -37.910861 0.000000 180.000000 16.345900 0.000000 21.801409 1.448403 -0.000000 158.198591 10.870327 30.000000 15.945396 1.741633 0.000000 18.000000 -0.821326 0.000000
1691.525230 140.756605 102.418196 0.000000 0.000000 0.000000 0.000000 0.000000 0.000000 -163.376529 -0.781538 4.973798 16.623471 -3.179768 4.973798 -171.853121 -2.881143 3.759997 99.744051 16.764701 29.763441 -171.126653 -3.682165 -3.759997 0.673538 0.350351 0.313953
1636.048050 128.802021 118.642633 0.000000 0.000000 0.000000 0.000000 0.000000 0.000000 157.904128 25.125732 9.635073 -22.095872 -24.349903 9.635073 -171.936471 -3.729404 7.460697 -143.675701 -14.345826 29.057495 -173.500805 -3.429601 -7.460697 0.570999 0.446983 0.626666
1578.156967 80.474526 133.778380 0.000000 0.000000 0.000000 0.000000 0.000000 0.000000 -139.519796 -10.984413 13.690942 40.480204 3.553473 13.690942 -174.507724 -3.771229 11.043737 119.111399 -4.766310 27.893295 -173.607258 -3.571966 -11.043737 0.461920 0.453566 0.936907
960.418757 444.998421 124.643566 0.000000 0.000000 0.000000 0.000000 0.000000 0.000000 25.077893 26.427320 16.886559 180.000000 3.312369 16.886559 23.861935 -3.820756 14.452610 156.138065 -0.953115 26.289200 17.903699 -1.248992 -14.452610 18.000000 0.091547 1.243449
960.523360 444.997533 117.512692 0.000000 0.000000 0.000000 0.000000 0.000000 0.000000 25.638906 -4.029439 19.021130 180.000000 -2.439824 19.021130 24.425035 10.669381 17.633558 155.574965 0.747066 24.270510 18.452907 -4.112489 -17.633558 18.000000 0.362706 1.545085
960.627905 444.996447 144.572288 0.000000 0.000000 0.000000 0.000000 0.000000 0.000000 26.219073 -8.607400 19.960535 180.000000 24.209670 19.960535 25.006291 -21.937768 20.536413 154.993709 3.512439 21.869059 19.024920 -2.081511 -20.536413 18.000000 0.542069 1.840623
1126.242828 420.359820 135.599877 0.000000 0.000000 0.000000 0.000000 0.000000 0.000000 31.410514 2.113886 19.645745 -148.589486 -9.022116 19.645745 32.280463 -1.867814 23.115397 -131.603972 -2.275346 19.122720 45.585331 0.934361 -23.115397 -13.449727 -0.190837 2.128896
1257.895088 650.549197 143.721201 0.000000 0.000000 0.000000 0.000000 0.000000 0.000000 25.073180 1.020231 18.096541 -154.926820 13.848719 18.096541 46.260945 -8.380910 25.329838 -154.651428 -5.478858 16.074804 27.339487 4.344970 -25.329838 -13.619892 2.539191 2.408768
960.941083 444.992008 130.984953 0.000000 0.000000 0.000000 0.000000 0.000000 0.000000 28.072001 10.128741 15.410265 180.000000 6.512927 15.410265 26.849221 -14.285939 27.144812 153.150779 -5.869788 12.773379 20.864045 2.079970 -27.144812 18.000000 0.914372 2.679134
1163.815842 547.748709 144.281023 0.000000 0.000000 0.000000 0.000000 0.000000 0.000000 117.162728 5.935872 11.755705 -62.837272 -10.390581 11.755705 102.363764 8.016133 28.531695 -47.376450 1.870938 9.270510 104.768601 -2.884440 -28.531695 -6.003489 0.024015 2.938926
961.149372 444.988063 147.817787 0.000000 0.000000 0.000000 0.000000 0.000000 0.000000 29.395983 0.571245 7.362491 180.000000 4.530998 7.362491 28.146217 7.714654 29.468618 151.853783 13.499911 5.621439 22.170006 -0.848911 -29.468618 18.000000 -1.134277 3.187120
1136.717377 590.104480 143.787583 0.000000 0.000000 0.000000 0.000000 0.000000 0.000000 115.752126 3.989422 2.506665 -64.247874 -5.891400 2.506665 73.638146 2.461359 29.940802 -21.842452 -6.588682 1.883716 75.369282 4.352972 -29.940802 -6.767207 -0.123318 3.422736
1163.079758 634.077559 146.290702 0.000000 0.000000 0.000000 0.000000 0.000000 0.000000 132.174340 -0.445039 -2.506665 -47.825660 -2.417419 -2.506665 94.255711 3.367315 29.940802 -149.364979 -6.627900 -1.883716 30.021641 6.144934 -29.940802 -5.096180 -0.436147 3.644843
961.460830 444.980668 147.786534 0.000000 0.000000 0.000000 0.000000 0.000000 0.000000 31.497152 8.220164 -7.362491 180.000000 -3.755188 -7.362491 30.152455 4.774587 29.468618 149.847545 -5.311564 -5.621439 24.175589 6.236976 -29.468618 18.000000 -0.223262 3.852566
1097.449951 565.089898 159.409092 0.000000 0.000000 0.000000 0.000000 0.000000 0.000000 -119.219568 1.815836 -11.755705 60.780432 2.089776 -11.755705 -150.180642 -6.578260 28.531695 48.804955 2.997533 -9.270510 -149.874178 -6.351899 -28.531695 2.713854 0.566712 4.045085
1114.140244 528.302071 141.334582 0.000000 0.000000 0.000000 0.000000 0.000000 0.000000 -142.671523 -13.972677 -15.410265 37.328477 4.373950 -15.410265 -177.395681 -2.652919 27.144812 34.687329 3.065125 -12.773379 161.894167 -4.768959 -27.144812 -0.910956 0.412128 4.221640
1116.433640 479.728639 139.123340 0.000000 0.000000 0.000000 0.000000 0.000000 0.000000 -102.267481 0.994366 -18.096541 77.732519 9.661935 -18.096541 -163.695626 -7.750866 25.329838 38.575767 0.836679 -16.074804 -176.001122 0.356180 -25.329838 0.706594 -0.050609 4.381533
1135.931282 466.493965 154.948719 0.000000 0.000000 0.000000 0.000000 0.000000 0.000000 -112.868406 2.149591 -19.645745 67.131594 -18.867179 -19.645745 -159.517862 0.388486 23.115397 36.204678 -3.824754 -19.122720 -154.426613 -5.625791 -23.115397 2.428729 0.546904 4.524135
1141.618767 467.420679 142.511895 0.000000 0.000000 0.000000 0.000000 0.000000 0.000000 -123.086385 5.234070 -19.960535 56.913615 -7.811880 -19.960535 -154.885724 0.282296 20.536413 36.481623 2.623008 -21.869059 -153.965441 -6.619495 -20.536413 2.446728 0.516803 4.648882
1150.647926 469.370956 162.793675 0.000000 0.000000 0.000000 0.000000 0.000000 0.000000 -43.953779 23.373824 -19.021130 136.046221 -31.483794 -19.021130 -154.327268 -6.487177 17.633558 60.745168 -10.538147 -24.270510 -153.350642 -6.166270 -17.633558 2.386216 0.583146 4.755283
1151.529922 496.420240 150.836128 0.000000 0.000000 0.000000 0.000000 0.000000 0.000000 -116.362129 -1.225050 -16.886559 63.637871 -0.606906 -16.886559 -149.081043 -0.362090 14.452610 35.941860 0.473872 -26.289200 -156.847177 -1.132529 -14.452610 2.056513 0.007067 4.842916
